HIERARCHY
ROOT hip
{
  OFFSET 0 0 0
  CHANNELS 6 Xposition Yposition Zposition Zrotation Yrotation Xrotation
  JOINT abdomen
  {
    OFFSET 0 20.6881 -0.73152
    CHANNELS 3 Zrotation Xrotation Yrotation
    JOINT chest
    {
      OFFSET 0 11.7043 -0.48768
      CHANNELS 3 Zrotation Xrotation Yrotation
      JOINT neck
      {
        OFFSET 0 22.1894 -2.19456
        CHANNELS 3 Zrotation Xrotation Yrotation
        JOINT head
        {
          OFFSET -0.24384 7.07133 1.2192
          CHANNELS 3 Zrotation Xrotation Yrotation
          JOINT leftEye
          {
            OFFSET 4.14528 8.04674 8.04672
            CHANNELS 3 Zrotation Xrotation Yrotation
            End Site
            {
              OFFSET 1 0 0
            }
          }
          JOINT rightEye
          {
            OFFSET -3.6576 8.04674 8.04672
            CHANNELS 3 Zrotation Xrotation Yrotation
            End Site
            {
              OFFSET 1 0 0
            }
          }
        }
      }
      JOINT rCollar
      {
        OFFSET -2.68224 19.2634 -4.8768
        CHANNELS 3 Zrotation Xrotation Yrotation
        JOINT rShldr
        {
          OFFSET -8.77824 -1.95073 1.46304
          CHANNELS 3 Zrotation Xrotation Yrotation
          JOINT rForeArm
          {
            OFFSET -28.1742 -1.7115 0.48768
            CHANNELS 3 Zrotation Xrotation Yrotation
            JOINT rHand
            {
              OFFSET -22.5879 0.773209 7.07136
              CHANNELS 3 Zrotation Xrotation Yrotation
              JOINT rThumb1
              {
                OFFSET -1.2192 -0.487915 3.41376
                CHANNELS 3 Zrotation Xrotation Yrotation
                JOINT rThumb2
                {
                  OFFSET -3.37035 -0.52449 3.41376
                  CHANNELS 3 Zrotation Xrotation Yrotation
                  End Site
                  {
                    OFFSET -1.78271 -1.18214 1.43049
                  }
                }
              }
              JOINT rIndex1
              {
                OFFSET -7.75947 0.938293 5.60832
                CHANNELS 3 Zrotation Xrotation Yrotation
                JOINT rIndex2
                {
                  OFFSET -2.54057 -0.884171 1.56538
                  CHANNELS 3 Zrotation Xrotation Yrotation
                  End Site
                  {
                    OFFSET -1.62519 -0.234802 1.16502
                  }
                }
              }
              JOINT rMid1
              {
                OFFSET -8.24714 1.18213 3.41376
                CHANNELS 3 Zrotation Xrotation Yrotation
                JOINT rMid2
                {
                  OFFSET -3.10165 -0.590103 1.0647
                  CHANNELS 3 Zrotation Xrotation Yrotation
                  End Site
                  {
                    OFFSET -2.48547 -0.328903 0.83742
                  }
                }
              }
              JOINT rRing1
              {
                OFFSET -8.82822 0.546677 1.51678
                CHANNELS 3 Zrotation Xrotation Yrotation
                JOINT rRing2
                {
                  OFFSET -2.60934 -0.819778 -0.0198488
                  CHANNELS 3 Zrotation Xrotation Yrotation
                  End Site
                  {
                    OFFSET -2.33842 -0.294052 0.168128
                  }
                }
              }
              JOINT rPinky1
              {
                OFFSET -8.27202 -0.0477905 -0.4584
                CHANNELS 3 Zrotation Xrotation Yrotation
                JOINT rPinky2
                {
                  OFFSET -1.82734 -0.647385 -0.700984
                  CHANNELS 3 Zrotation Xrotation Yrotation
                  End Site
                  {
                    OFFSET -1.69225 -0.51767 -0.607171
                  }
                }
              }
            }
          }
        }
      }
      JOINT lCollar
      {
        OFFSET 2.68224 19.2634 -4.8768
        CHANNELS 3 Zrotation Xrotation Yrotation
        JOINT lShldr
        {
          OFFSET 8.77824 -1.95073 1.46304
          CHANNELS 3 Zrotation Xrotation Yrotation
          JOINT lForeArm
          {
            OFFSET 28.1742 -1.7115 0.48768
            CHANNELS 3 Zrotation Xrotation Yrotation
            JOINT lHand
            {
              OFFSET 22.5879 0.773209 7.07136
              CHANNELS 3 Zrotation Xrotation Yrotation
              JOINT lThumb1
              {
                OFFSET 1.2192 -0.487915 3.41376
                CHANNELS 3 Zrotation Xrotation Yrotation
                JOINT lThumb2
                {
                  OFFSET 3.37035 -0.52449 3.41376
                  CHANNELS 3 Zrotation Xrotation Yrotation
                  End Site
                  {
                    OFFSET 1.78271 -1.18214 1.43049
                  }
                }
              }
              JOINT lIndex1
              {
                OFFSET 7.75947 0.938293 5.60832
                CHANNELS 3 Zrotation Xrotation Yrotation
                JOINT lIndex2
                {
                  OFFSET 2.54057 -0.884171 1.56538
                  CHANNELS 3 Zrotation Xrotation Yrotation
                  End Site
                  {
                    OFFSET 1.62519 -0.234802 1.16502
                  }
                }
              }
              JOINT lMid1
              {
                OFFSET 8.24714 1.18213 3.41376
                CHANNELS 3 Zrotation Xrotation Yrotation
                JOINT lMid2
                {
                  OFFSET 3.10165 -0.590103 1.0647
                  CHANNELS 3 Zrotation Xrotation Yrotation
                  End Site
                  {
                    OFFSET 2.48547 -0.328903 0.83742
                  }
                }
              }
              JOINT lRing1
              {
                OFFSET 8.82822 0.546677 1.51678
                CHANNELS 3 Zrotation Xrotation Yrotation
                JOINT lRing2
                {
                  OFFSET 2.60934 -0.819778 -0.0198488
                  CHANNELS 3 Zrotation Xrotation Yrotation
                  End Site
                  {
                    OFFSET 2.33842 -0.294052 0.168128
                  }
                }
              }
              JOINT lPinky1
              {
                OFFSET 8.27202 -0.0477905 -0.4584
                CHANNELS 3 Zrotation Xrotation Yrotation
                JOINT lPinky2
                {
                  OFFSET 1.82734 -0.647385 -0.700984
                  CHANNELS 3 Zrotation Xrotation Yrotation
                  End Site
                  {
                    OFFSET 1.69225 -0.51767 -0.607171
                  }
                }
              }
            }
          }
        }
      }
    }
  }
  JOINT rButtock
  {
    OFFSET -8.77824 4.35084 1.2192
    CHANNELS 3 Zrotation Xrotation Yrotation
    JOINT rThigh
    {
      OFFSET 0 -1.70687 -2.19456
      CHANNELS 3 Zrotation Xrotation Yrotation
      JOINT rShin
      {
        OFFSET 0 -36.8199 0.73152
        CHANNELS 3 Zrotation Xrotation Yrotation
        JOINT rFoot
        {
          OFFSET 0.73152 -45.1104 -5.12064
          CHANNELS 3 Zrotation Xrotation Yrotation
          End Site
          {
            OFFSET -1.1221 -3.69964 12.103
          }
        }
      }
    }
  }
  JOINT lButtock
  {
    OFFSET 8.77824 4.35084 1.2192
    CHANNELS 3 Zrotation Xrotation Yrotation
    JOINT lThigh
    {
      OFFSET 0 -1.70687 -2.19456
      CHANNELS 3 Zrotation Xrotation Yrotation
      JOINT lShin
      {
        OFFSET 0 -36.8199 0.73152
        CHANNELS 3 Zrotation Xrotation Yrotation
        JOINT lFoot
        {
          OFFSET -0.73152 -45.1104 -5.12064
          CHANNELS 3 Zrotation Xrotation Yrotation
          End Site
          {
            OFFSET 1.1221 -3.69964 12.103
          }
        }
      }
    }
  }
}
MOTION
Frames:	4
Frame Time:	0.03333
0.05048438906669617 46.66791558265686 0.21588196977972984 -2.494969367980957 2.109365224838257 5.967855453491211 -2.874277114868164 13.770228385925293 3.937349796295166 3.031010866165161 -9.301995277404785 1.2565511465072632 -5.526214122772217 14.773430824279785 -4.588841915130615 8.715835571289062 -24.972118377685547 -6.914018154144287 -0.008901434950530529 -0.0588064044713974 -0.08138226717710495 0.00909265037626028 -0.006307478994131088 0.07082632184028625 0.038864865899086 -0.004354144912213087 0.018693406134843826 51.47330093383789 39.53127670288086 11.48160457611084 -28.260217666625977 -31.553539276123047 69.67520904541016 0.14700192213058472 1.7138417959213257 0.1338699609041214 -0.03795083612203598 -0.04526728764176369 -0.06559135019779205 -0.05542551726102829 -0.00814148411154747 -0.02695165015757084 -0.05545151233673096 -0.005180245265364647 0.04695704206824303 7.798096656799316 5.492331027984619 0.43776530027389526 -0.010807921178638935 0.0201075728982687 -0.06314514577388763 2.8998310565948486 1.0363653898239136 0.045913487672805786 0.0035831911955028772 0.03074323758482933 -0.0769496038556099 10.24079704284668 0.5964047312736511 0.0561356283724308 -0.00919337011873722 -0.07329820096492767 -0.022878484800457954 2.2207727432250977 -0.7270120978355408 -0.20997820794582367 -0.06355199217796326 0.021755311638116837 0.001636978005990386 -57.61159133911133 38.1855583190918 -23.07594871520996 28.460601806640625 -34.50619888305664 -73.96427917480469 0.31649133563041687 -18.672584533691406 2.630316734313965 0.003715051570907235 0.023396838456392288 -0.023726332932710648 0.01032148115336895 0.0537351593375206 0.004571113269776106 0.07382222265005112 -0.031665779650211334 0.06457038968801498 -7.773320198059082 5.454277515411377 -0.4365072548389435 0.05391222611069679 -0.04014665633440018 -0.013600519858300686 -2.817401885986328 0.9734170436859131 -0.021251169964671135 0.06292375177145004 0.1358289122581482 -0.0525151751935482 -10.26230525970459 0.740248441696167 -0.04257684201002121 0.007090315222740173 0.03398502245545387 0.02709360234439373 -2.218173027038574 -0.7143943309783936 0.22345590591430664 -0.006228454876691103 -0.0056671625934541225 0.041355863213539124 -30.2900333404541 -46.131629943847656 -25.645347595214844 -1.9884440898895264 67.78797149658203 2.6848597526550293 -4.45642614364624 -13.137982368469238 -11.269742965698242 -0.040131885558366776 -0.07729434221982956 0.06101781874895096 33.75146484375 -43.29659652709961 26.10634422302246 1.2870721817016602 69.24818420410156 -2.00291109085083 5.092823505401611 -11.997733116149902 15.256199836730957
0.03596814349293709 61.85629367828369 0.271637924015522 -3.169438600540161 1.2145181894302368 5.943017482757568 -2.8240432739257812 12.647279739379883 4.464583873748779 2.9578073024749756 -9.152270317077637 1.34618079662323 -5.413257598876953 14.998305320739746 -4.576181411743164 8.324687004089355 -25.557226181030273 -7.021873950958252 -0.05213799700140953 0.03556850180029869 -0.04861200973391533 0.08090358227491379 0.007837045006453991 -0.01866784133017063 -0.040923718363046646 0.07430793344974518 0.038096535950899124 52.50688934326172 40.510677337646484 11.860350608825684 -28.446338653564453 -31.26967430114746 69.42933654785156 0.4078366160392761 1.4125480651855469 -0.19537173211574554 -0.0010765875922515988 0.09757241606712341 -0.05170609429478645 -0.08941823244094849 -0.038621846586465836 -0.010147671215236187 -0.07720233500003815 -0.0960906594991684 -0.0012629100820049644 7.786797523498535 5.484548091888428 0.4546287953853607 -0.07554628700017929 -0.022724874317646027 -0.0032415904570370913 2.9558019638061523 0.9438653588294983 0.06830582022666931 0.041227780282497406 0.0955645889043808 0.0027412439230829477 10.27188777923584 0.5779399871826172 0.11042126268148422 -0.030389802530407906 -0.010240845382213593 -0.018917378038167953 2.1782264709472656 -0.737967848777771 -0.14595867693424225 -0.025100192055106163 0.06278439611196518 -0.04725971445441246 -58.18259811401367 39.812400817871094 -22.294078826904297 28.587148666381836 -35.09872055053711 -73.89321899414062 -0.026579633355140686 -17.826122283935547 2.3849964141845703 0.03476668894290924 0.07713936269283295 -0.04312804341316223 0.00276638800278306 0.04470593482255936 -0.05648249760270119 0.07371905446052551 -0.059315990656614304 0.06347741186618805 -7.69194221496582 5.448080062866211 -0.38360080122947693 -0.05398779734969139 0.05303867533802986 -0.0032394533045589924 -2.906325340270996 0.9801100492477417 -0.046561893075704575 0.037568241357803345 0.024289587512612343 -0.09363976866006851 -10.305999755859375 0.7996841669082642 -0.024059036746621132 -0.05266212299466133 0.054770328104496 0.006088657304644585 -2.1636250019073486 -0.7056649923324585 0.24595436453819275 0.010188108310103416 0.06824883818626404 0.1068870797753334 -29.248952865600586 -45.342960357666016 -24.933988571166992 -1.9470384120941162 67.72283935546875 2.799220561981201 -4.582160472869873 -14.850309371948242 -10.856707572937012 -0.07537428289651871 -0.03293023258447647 0.07814832776784897 31.91259002685547 -41.84774398803711 24.541372299194336 0.23437604308128357 68.88562774658203 -0.8802960515022278 5.659582138061523 -11.539801597595215 15.420313835144043
0.10864799842238426 67.35583543777466 0.2715291455388069 1.4095829725265503 12.309870719909668 5.645738124847412 -13.01396656036377 8.254369735717773 -9.351478576660156 7.350007057189941 -8.125001907348633 -1.1792266368865967 -10.305770874023438 19.886634826660156 -18.299623489379883 19.454349517822266 -23.33254051208496 -35.51548767089844 -0.10466977208852768 -0.1278800368309021 -0.013155845925211906 -0.031170807778835297 0.043274346739053726 0.08168087154626846 0.01589067466557026 0.04257754981517792 0.011835425160825253 67.84303283691406 35.911376953125 -5.182709217071533 -16.622549057006836 -9.42139720916748 31.299684524536133 0.1726238876581192 0.7262337803840637 -0.08838140219449997 0.01108396053314209 0.03300722315907478 -0.00464112963527441 -0.07236328721046448 -0.05289798602461815 0.025502094998955727 -0.01570432074368 -0.034677401185035706 0.08056921511888504 7.693295478820801 5.470562934875488 0.4347085952758789 0.013111240230500698 -0.08388245850801468 -0.012448200024664402 2.8426918983459473 0.9108482003211975 0.08820877224206924 -0.001467204885557294 0.14714430272579193 -0.0034632820170372725 10.253837585449219 0.6482326984405518 0.05160556361079216 -0.128648579120636 -0.08751004934310913 -0.028353717178106308 2.2708728313446045 -0.7632869482040405 -0.27465036511421204 -0.11018525063991547 -0.006907722447067499 0.032128892838954926 -76.15937805175781 29.665321350097656 -2.1405234336853027 14.4530611038208 -7.224408149719238 -25.53473663330078 -0.1321561634540558 14.433337211608887 -2.3600494861602783 0.039394233375787735 -0.009075521491467953 -0.02539695054292679 0.08704221248626709 0.06929219514131546 0.026726199313998222 0.06492741405963898 -0.03435945138335228 0.03548724204301834 -7.737358093261719 5.4678263664245605 -0.3346043527126312 -0.016080617904663086 -0.001588949584402144 0.14463885128498077 -2.8837428092956543 0.9554062485694885 0.048448801040649414 -0.11334668099880219 0.07099076360464096 -0.016856815665960312 -10.18486499786377 0.7368857264518738 -0.07187072187662125 -0.02196282334625721 -0.024321377277374268 0.1179233193397522 -2.2177445888519287 -0.7647033333778381 0.1508997231721878 -0.06883400678634644 0.01229693740606308 0.09859707951545715 -36.02635192871094 -62.05016326904297 -30.916278839111328 -1.9154325723648071 68.44841003417969 2.6072840690612793 2.9069244861602783 -7.027379989624023 15.163246154785156 -0.04591496288776398 0.11528133600950241 0.10289779305458069 4.506011009216309 10.178471565246582 3.406183958053589 -0.5859928727149963 36.34190368652344 -1.5959885120391846 19.766878128051758 -21.72699546813965 40.76936340332031
0.3094008192420006 66.11706018447876 0.2594003453850746 1.1704169511795044 12.006165504455566 5.6132917404174805 -12.932882308959961 8.050644874572754 -11.265435218811035 9.388843536376953 -7.215554714202881 -2.5261311531066895 -10.959417343139648 22.031177520751953 -20.884214401245117 20.518381118774414 -22.904022216796875 -36.97993850708008 -0.10098642110824585 -0.10016793012619019 -0.08516610413789749 0.009677832014858723 0.01739559881389141 0.07885129004716873 0.044018134474754333 0.0702645406126976 0.024972200393676758 69.35865783691406 36.71321487426758 -6.506186008453369 -16.416440963745117 -9.071869850158691 30.52855682373047 0.03319225087761879 0.47146376967430115 -0.09978698939085007 -0.012655594386160374 0.027448708191514015 0.027908656746149063 -0.05814686417579651 -0.10610589385032654 -0.02866191416978836 -0.02935459092259407 -0.035669729113578796 0.08399044722318649 7.658434867858887 5.484927177429199 0.4617268145084381 0.06347119063138962 -0.04058394953608513 0.02492665685713291 2.880096197128296 0.8851689100265503 0.05868617072701454 0.07116866856813431 0.17956657707691193 0.0083652064204216 10.350238800048828 0.6617622971534729 0.0560021847486496 -0.1180286854505539 -0.06332201510667801 -0.0838087871670723 2.3031423091888428 -0.7611793279647827 -0.24550406634807587 -0.1312745213508606 -0.008501917123794556 0.0430634506046772 -75.35071563720703 27.252073287963867 -2.785304307937622 13.245256423950195 -6.160479545593262 -23.44072723388672 -0.07723646610975266 15.653284072875977 -2.4426791667938232 -0.02125612460076809 -0.009525084868073463 -0.0027685367967933416 0.05676836147904396 0.043943148106336594 0.07372821122407913 0.04298653081059456 -0.02265241928398609 -0.055495988577604294 -7.717606544494629 5.492389678955078 -0.31682029366493225 0.03855541720986366 0.03165077418088913 0.17726656794548035 -2.9204580783843994 0.9397640228271484 0.003993593621999025 -0.03057670406997204 0.08613839745521545 -0.016420988366007805 -10.221714973449707 0.7530935406684875 -0.1147056370973587 -0.05861368030309677 -0.035804662853479385 0.01846962422132492 -2.251441478729248 -0.706680178642273 0.17145153880119324 -0.09874612838029861 -0.017805319279432297 0.021149175241589546 -34.95069122314453 -62.73721694946289 -29.97696304321289 -2.0029542446136475 69.18183898925781 2.6211578845977783 2.9509222507476807 -6.245965003967285 16.142208099365234 -0.04942642152309418 0.11785973608493805 0.07513745129108429 4.324908256530762 10.717653274536133 3.59255313873291 -0.43585404753685 33.98316955566406 -1.9108935594558716 20.76680564880371 -21.923004150390625 41.58907699584961
